<svg width="1728" height="1117" viewBox="0 0 1728 1117" fill="none" xmlns="http://www.w3.org/2000/svg">
<g clip-path="url(#clip0_1_2)" filter="url(#filter0_n_1_2)">
<rect width="1728" height="1117" fill="#151515"/>
<ellipse cx="201" cy="156.5" rx="392" ry="391.5" fill="url(#paint0_radial_1_2)"/>
<circle cx="1489" cy="205" r="184" fill="url(#paint1_radial_1_2)"/>
<circle cx="593" cy="866" r="250" fill="url(#paint2_radial_1_2)"/>
<circle cx="1598" cy="917" r="250" fill="url(#paint3_radial_1_2)"/>
<path fill-rule="evenodd" clip-rule="evenodd" d="M864.531 1037.03C864.461 1037.1 864.379 1037.16 864.287 1037.19C864.196 1037.23 864.099 1037.25 864 1037.25C863.901 1037.25 863.804 1037.23 863.713 1037.19C863.621 1037.16 863.539 1037.1 863.469 1037.03L854.469 1028.03C854.328 1027.89 854.249 1027.7 854.249 1027.5C854.249 1027.3 854.328 1027.11 854.469 1026.97C854.61 1026.83 854.801 1026.75 855 1026.75C855.199 1026.75 855.39 1026.83 855.531 1026.97L864 1035.44L872.469 1026.97C872.61 1026.83 872.801 1026.75 873 1026.75C873.199 1026.75 873.39 1026.83 873.531 1026.97C873.672 1027.11 873.751 1027.3 873.751 1027.5C873.751 1027.7 873.672 1027.89 873.531 1028.03L864.531 1037.03Z" fill="white"/>
</g>
<defs>
<filter id="filter0_n_1_2" x="0" y="0" width="1728" height="1117" filterUnits="userSpaceOnUse" color-interpolation-filters="sRGB">
<feFlood flood-opacity="0" result="BackgroundImageFix"/>
<feBlend mode="normal" in="SourceGraphic" in2="BackgroundImageFix" result="shape"/>
<feTurbulence type="fractalNoise" baseFrequency="2 2" stitchTiles="stitch" numOctaves="3" result="noise" seed="6210" />
<feColorMatrix in="noise" type="luminanceToAlpha" result="alphaNoise" />
<feComponentTransfer in="alphaNoise" result="coloredNoise1">
<feFuncA type="discrete" tableValues="1 1 1 1 1 1 1 1 1 1 1 1 1 1 1 1 1 1 1 1 1 1 1 1 1 1 1 1 1 1 1 1 1 1 1 1 1 1 1 1 1 1 1 1 1 1 1 1 1 1 1 0 0 0 0 0 0 0 0 0 0 0 0 0 0 0 0 0 0 0 0 0 0 0 0 0 0 0 0 0 0 0 0 0 0 0 0 0 0 0 0 0 0 0 0 0 0 0 0 0 "/>
</feComponentTransfer>
<feComposite operator="in" in2="shape" in="coloredNoise1" result="noise1Clipped" />
<feFlood flood-color="rgba(12, 12, 12, 0.25)" result="color1Flood" />
<feComposite operator="in" in2="noise1Clipped" in="color1Flood" result="color1" />
<feMerge result="effect1_noise_1_2">
<feMergeNode in="shape" />
<feMergeNode in="color1" />
</feMerge>
</filter>
<radialGradient id="paint0_radial_1_2" cx="0" cy="0" r="1" gradientUnits="userSpaceOnUse" gradientTransform="translate(201 156.5) rotate(90) scale(391.5 392)">
<stop stop-color="white" stop-opacity="0.1"/>
<stop offset="1" stop-color="white" stop-opacity="0"/>
</radialGradient>
<radialGradient id="paint1_radial_1_2" cx="0" cy="0" r="1" gradientUnits="userSpaceOnUse" gradientTransform="translate(1489 205) rotate(90) scale(184)">
<stop stop-color="white" stop-opacity="0.05"/>
<stop offset="1" stop-color="white" stop-opacity="0"/>
</radialGradient>
<radialGradient id="paint2_radial_1_2" cx="0" cy="0" r="1" gradientUnits="userSpaceOnUse" gradientTransform="translate(593 866) rotate(90) scale(250)">
<stop stop-color="white" stop-opacity="0.06"/>
<stop offset="1" stop-color="white" stop-opacity="0"/>
</radialGradient>
<radialGradient id="paint3_radial_1_2" cx="0" cy="0" r="1" gradientUnits="userSpaceOnUse" gradientTransform="translate(1598 917) rotate(90) scale(250)">
<stop stop-color="white" stop-opacity="0.1"/>
<stop offset="1" stop-color="white" stop-opacity="0"/>
</radialGradient>
<clipPath id="clip0_1_2">
<rect width="1728" height="1117" fill="white"/>
</clipPath>
</defs>
</svg>
