<?xml version="1.0" encoding="UTF-8"?>
<svg id="Camada_1" xmlns="http://www.w3.org/2000/svg" version="1.1" viewBox="0 0 2499 2500">
  <!-- Generator: Adobe Illustrator 29.2.1, SVG Export Plug-In . SVG Version: 2.1.0 Build 116)  -->
  <defs>
    <style>
      .st0 {
        fill: #fff;
      }

      .st1 {
        fill: none;
      }
    </style>
  </defs>
  <g>
    <path class="st1" d="M2052.6,932c-87-83.3-203-129.2-326.3-129.2s-47.5,1.7-71.1,5.1c-198.5,28.3-331.1,170.8-405.5,280.4-74.6-109.6-207.3-252.1-405.7-280.4-23.6-3.4-47.5-5.1-71.1-5.1-123.4,0-239.4,45.8-326.4,129.2-88.1,84.2-136.6,196.9-136.6,317.3s48.5,233.1,136.5,317.2c87.1,83.4,203,129.3,326.4,129.3,23.8,0,47.7-1.7,71.3-5.1,198.4-28.3,331.1-171,405.6-280.5,74.3,109.6,207,252.1,405.5,280.4,23.7,3.5,47.7,5.2,71.3,5.2h0c123.4,0,239.1-46,326.3-129.3,88-84.1,136.3-196.9,136.3-317.2s-48.4-233.1-136.5-317.3ZM821.6,1534.2c-16.4,2.2-32.8,3.5-49,3.5-168,0-304.6-129.3-304.6-288.3s136.7-288.3,304.8-288.3,32.6,1.1,48.7,3.6c186.9,26.6,301.3,211,340,284.8-38.8,73.9-153.1,258-340,284.8ZM1726.4,1537.7c-16,0-32.5-1.3-48.9-3.5-186.9-26.8-301.2-211-340-284.8h0c38.8-74,153.1-258.2,340-284.9,16.2-2.4,32.7-3.5,48.7-3.5,168,0,304.7,129.3,304.7,288.3s-136.7,288.3-304.5,288.3Z"/>
    <path class="st0" d="M1249.6.9C559.9.9.9,560,.9,1249.4s559,1248.6,1248.7,1248.6c689.4,0,1248.5-559,1248.5-1248.6S1939.1.9,1249.6.9ZM2052.7,1566.6c-87.2,83.4-202.9,129.3-326.3,129.3h0c-23.5,0-47.6-1.7-71.3-5.2-198.5-28.3-331.2-170.9-405.5-280.4-74.6,109.6-207.3,252.3-405.6,280.5-23.6,3.4-47.4,5.1-71.3,5.1-123.4,0-239.2-45.9-326.4-129.3-88-84.1-136.5-196.9-136.5-317.2s48.5-233.1,136.6-317.3c87-83.4,203-129.2,326.4-129.2s47.5,1.7,71.1,5.1c198.4,28.3,331.1,170.8,405.7,280.4,74.3-109.6,207-252.1,405.5-280.4,23.7-3.4,47.6-5.1,71.1-5.1,123.4,0,239.3,45.9,326.3,129.2,88,84.2,136.5,196.9,136.5,317.3s-48.3,233.1-136.3,317.2Z"/>
    <path class="st0" d="M821.6,964.7c-16.2-2.4-32.7-3.6-48.7-3.6-168.1,0-304.8,129.3-304.8,288.3s136.6,288.3,304.6,288.3,32.6-1.3,49-3.5c186.9-26.8,301.2-210.9,340-284.8-38.7-73.8-153.1-258.2-340-284.8ZM923.3,1295.3h-278v-89.6h278v89.6Z"/>
  </g>
  <path class="st0" d="M1726.3,961c-16,0-32.5,1.1-48.7,3.5-186.9,26.7-301.3,210.9-340,284.9h0c38.8,73.8,153.1,258,340,284.8,16.4,2.3,32.8,3.5,48.9,3.5,167.9,0,304.5-129.3,304.5-288.3s-136.6-288.3-304.7-288.3ZM1851.2,1295.3h-94.1v94.2h-89.9v-94.2h-94.1v-89.6h94.1v-94.2h89.9v94.2h94.1v89.6Z"/>
</svg>