<svg width="20" height="20" viewBox="0 0 20 20" fill="none" xmlns="http://www.w3.org/2000/svg">
<path fill-rule="evenodd" clip-rule="evenodd" d="M2.99999 10.0001C2.99999 9.8012 3.07901 9.61044 3.21966 9.46979C3.36031 9.32913 3.55108 9.25012 3.74999 9.25012H14.388L10.23 5.29012C10.0936 5.1507 10.0169 4.96363 10.0161 4.76859C10.0153 4.57355 10.0906 4.38589 10.2259 4.24539C10.3611 4.1049 10.5458 4.02264 10.7408 4.01605C10.9357 4.00947 11.1255 4.07908 11.27 4.21012L16.77 9.46012C16.8426 9.53008 16.9003 9.61396 16.9398 9.70674C16.9792 9.79952 16.9995 9.8993 16.9995 10.0001C16.9995 10.1009 16.9792 10.2007 16.9398 10.2935C16.9003 10.3863 16.8426 10.4702 16.77 10.5401L11.27 15.7901C11.1998 15.8619 11.1159 15.9188 11.0233 15.9575C10.9307 15.9963 10.8313 16.016 10.7309 16.0156C10.6305 16.0152 10.5313 15.9947 10.439 15.9552C10.3467 15.9157 10.2633 15.8582 10.1936 15.7859C10.124 15.7136 10.0696 15.628 10.0337 15.5343C9.99771 15.4406 9.98092 15.3406 9.98431 15.2403C9.9877 15.14 10.0112 15.0414 10.0534 14.9503C10.0956 14.8592 10.1556 14.7776 10.23 14.7101L14.388 10.7501H3.74999C3.55108 10.7501 3.36031 10.6711 3.21966 10.5304C3.07901 10.3898 2.99999 10.199 2.99999 10.0001Z" fill="black"/>
</svg>
