<?xml version="1.0" encoding="UTF-8"?>
<svg id="Camada_1" xmlns="http://www.w3.org/2000/svg" version="1.1" viewBox="0 0 800 800">
  <!-- Generator: Adobe Illustrator 29.2.1, SVG Export Plug-In . SVG Version: 2.1.0 Build 116)  -->
  <defs>
    <style>
      .st0 {
        opacity: .9;
      }

      .st0, .st1 {
        fill: #fff;
      }
    </style>
  </defs>
  <path class="st0" d="M202.6,400c.1-109,88.4-197.3,197.4-197.4,70.5.1,135.6,37.7,171,98.6l-50,28.9,167.6-96.7c-4.3-7.8-10.5-14.4-18.1-19.2l-244.8-141.3c-14.1-8.2-37.2-8.2-51.3,0l-244.8,141.3c-14.1,8.1-25.6,28.1-25.6,44.4v282.7c0,8.2,2.9,17.2,7.5,25.3l117.6-67.9c-17.4-30-26.5-64-26.5-98.7Z"/>
  <path class="st0" d="M485.5,350.6c-17.7-30.5-50.2-49.3-85.5-49.3-54.6.1-98.7,44.4-98.6,99,0,17.2,4.6,34.1,13.1,49l85.5-49.3,85.5-49.4Z"/>
  <path class="st1" d="M688.6,233.4l-168.2,97.1-34.9,20.2h0s-85.5,49.3-85.5,49.3l-85.4,49.3c17.6,30.5,50.2,49.3,85.4,49.4,35.3,0,67.8-18.9,85.5-49.4l85.4,49.4c-35.4,60.9-100.5,98.5-171,98.6-70.5,0-135.7-37.7-170.9-98.7l-117.6,67.9c4.7,8.1,11.1,15.1,18.1,19.2l244.8,141.3c14.1,8.2,37.2,8.2,51.3,0l244.8-141.3c7-4.1,13.4-11.1,18.1-19.2,4.7-8,7.5-17.1,7.5-25.3v-282.7c0-8.2-2.9-17.2-7.5-25.3h0ZM597.4,411h-21.9v21.9h-21.9v-21.9h-21.9v-21.9h21.9v-21.9h21.9v21.9h21.9v21.9h0ZM679.7,411h-21.9v21.9h-21.9v-21.9h-21.9v-21.9h21.9v-21.9h21.9v21.9h21.9v21.9Z"/>
</svg>