<?xml version="1.0" encoding="UTF-8"?>
<svg id="Camada_1" xmlns="http://www.w3.org/2000/svg" version="1.1" xmlns:xlink="http://www.w3.org/1999/xlink" viewBox="0 0 800 800">
  <!-- Generator: Adobe Illustrator 29.2.1, SVG Export Plug-In . SVG Version: 2.1.0 Build 116)  -->
  <defs>
    <style>
      .st0, .st1 {
        fill: #fff;
      }

      .st1 {
        opacity: .9;
      }
    </style>
  </defs>
  <path class="st1" d="M755.8,234.8c0-13.3-2.8-25.4-8.8-35.6-5.7-10.2-14.2-18.5-25.6-24.9-94.6-54.5-189.5-109.1-284.4-163.6-25.6-14.7-50.3-14.2-75.7.7-37.7,22.1-226.7,130.4-282.7,163.2-23.2,13-34.4,33.7-34.4,60.5v329.6c0,13,2.8,24.7,8.3,34.9,5.7,10.2,14.5,19,26.1,25.8,56.4,32.7,245,140.6,282.7,163.2,25.4,14.9,50.3,15.7,75.7.7,94.6-54.8,189.5-109.1,284.4-163.6,11.9-6.9,20.4-15.4,26.1-25.8,5.5-10.2,8.3-21.6,8.3-34.9V234.8Z"/>
  <path class="st0" d="M400.9,398.4L52.3,599.3c5.7,10.2,14.5,19,26.1,25.8,56.4,32.7,245,140.6,282.7,163.2,25.4,14.9,50.3,15.7,75.7.7,94.6-54.8,189.5-109.1,284.4-163.6,11.9-6.9,20.4-15.4,26.1-25.8l-346.3-201.1Z"/>
  <path class="st0" d="M297.5,457.9c20.4,35.6,58.6,59.3,102.2,59.3s82.5-24.2,102.7-60l-101.5-58.8-103.4,59.5Z"/>
  <path class="st0" d="M755.8,234.8c0-13.3-2.8-25.4-8.8-35.6l-346,199.2,346.5,200.9c5.5-10.2,8.3-21.6,8.3-34.9V234.8Z"/>
  <path d="M502.5,457.2c-20.2,35.8-58.6,60-102.7,60s-82.1-24-102.2-59.3c-10-17.3-15.7-37-15.7-58.3,0-65,52.7-117.6,117.6-117.6s81.4,23.7,101.8,58.8l102.7-59.3c-40.6-70.7-116.9-118.1-204.5-118.1-130.7,0-236.2,105.8-236.2,236.2s11.4,83,31.3,117.6c40.8,70.9,117.4,118.6,205.2,118.6s164.6-47.9,205.4-119.3l-102.7-59.3ZM632.4,343.6h-23.5v113.4h23.5v-113.4ZM684.4,343.6h-23.5v113.4h23.5v-113.4Z"/>
  <path class="st0" d="M703.4,362.8h-113.4v23.5h113.4v-23.5ZM703.4,414.5h-113.4v23.5h113.4v-23.5Z"/>
</svg>