<?xml version="1.0" encoding="UTF-8"?>
<svg id="Camada_1" xmlns="http://www.w3.org/2000/svg" version="1.1" viewBox="0 0 1024 1024">
  <!-- Generator: Adobe Illustrator 29.2.1, SVG Export Plug-In . SVG Version: 2.1.0 Build 116)  -->
  <path d="M910,265h-289v-43.5c0-24.6-19.9-44.5-44.5-44.5h-129c-24.6,0-44.5,19.9-44.5,44.5v43.5H114c-28.1,0-51,22.8-51,51v473.1c0,28.1,22.8,51,51,51h796.1c28.1,0,51-22.8,51-51v-473.1c0-28.1-22.8-51-51-51ZM221.5,425.5c9.6-26.3,39.5-52.4,67.7-56.5,114.3-16.5,160.7,120.4,69.5,174.4-78.8,46.6-168.7-31.7-137.2-117.9ZM480.5,731.4c-1.7,15-12.2,21.1-26.2,23.5-90.7-6.4-192.5,8.3-281.8,0-31.4-2.9-28.4-34.4-26-59.4,4.2-44.1,43.4-85.8,87.6-91.8,32.5-4.4,135.6-4,165.7,4,56.1,14.9,87.4,66.7,80.7,123.7ZM565.8,563c11,16.5,55.7,47.9,62.2,62,6.8,14.6-9.9,31.8-27.6,19.3-8.6-6.1-66.7-63.6-71.9-71.6-5.4-8.2-6.4-17.8-1.4-26.5,16.2-10.2,70.3-77.6,82.2-80.9,13.2-3.6,24.4,12,18.7,24.4-6.5,14.1-51.3,45.5-62.3,62.1-1.2,1.8-2.9,3.2-2.7,5.6-.2,2.4,1.5,3.9,2.7,5.6ZM747.6,462.8l-66.1,207.3c-7.9,12.8-32.4.3-26.6-15.4l63.6-201.6c1.7-4.6,4.5-11,9.6-12.6,13.6-4.1,23.8,9.7,19.5,22.3ZM850.4,596.1c-8.3,9.1-43.6,46.8-51,51.1-16.5,9.6-32-4.9-22-22,7.5-13,64.7-59,64-67.9-11.1-17.8-53.5-46.1-60.7-62.8-4.6-10.5-.9-24.7,11-26.5,5.9-.9,8.9,2,13.2,5.1,7.2,5.2,71.8,70.4,73.9,75.3,6.4,14.8-17.6,36-28.2,47.7Z"/>
</svg>