<svg width="28" height="28" viewBox="0 0 28 28" fill="none" xmlns="http://www.w3.org/2000/svg">
<path d="M10.9083 19.6934C10.9083 19.7751 10.8267 19.8334 10.71 19.8334C10.5933 19.8334 10.5 19.8334 10.5 19.6934C10.5 19.5534 10.5933 19.5534 10.6983 19.5534C10.8033 19.5534 10.9083 19.6117 10.9083 19.6934ZM9.74166 19.5184C9.74166 19.6001 9.74166 19.6934 9.90499 19.7167C9.94677 19.7368 9.9948 19.7395 10.0385 19.7242C10.0823 19.7089 10.1182 19.6768 10.1383 19.6351C10.1383 19.5534 10.1383 19.4717 9.97499 19.4367C9.81166 19.4017 9.76499 19.4367 9.74166 19.5184ZM11.3983 19.4601C11.2933 19.4601 11.2233 19.5534 11.235 19.6467C11.2467 19.7401 11.34 19.7751 11.4567 19.7517C11.5733 19.7284 11.6317 19.6468 11.62 19.5651C11.6083 19.4834 11.515 19.4484 11.3983 19.4601ZM13.8833 4.66675C12.6529 4.65517 11.4328 4.89228 10.2963 5.36386C9.15983 5.83544 8.1303 6.53176 7.26954 7.41105C6.40878 8.29033 5.73453 9.33444 5.28726 10.4807C4.83998 11.627 4.62889 12.8519 4.66666 14.0817C4.63409 16.0965 5.23159 18.071 6.37571 19.7297C7.51982 21.3883 9.15342 22.6482 11.0483 23.3334C11.5267 23.4151 11.7017 23.1117 11.7017 22.8668V20.5334C11.7017 20.5334 9.06499 21.1168 8.50499 19.3667C8.50499 19.3667 8.08499 18.2001 7.46666 17.9551C7.46666 17.9551 6.60332 17.3484 7.52499 17.3601C7.82686 17.4008 8.11498 17.5117 8.36622 17.6839C8.61746 17.8561 8.82483 18.0849 8.97166 18.3517C9.09373 18.591 9.26341 18.8028 9.47028 18.9742C9.67715 19.1455 9.91685 19.2728 10.1747 19.3482C10.4325 19.4236 10.703 19.4455 10.9696 19.4125C11.2362 19.3796 11.4932 19.2926 11.725 19.1567C11.7691 18.6697 11.9792 18.2125 12.32 17.8617C10.22 17.6167 8.09666 17.3134 8.09666 13.5917C8.07436 13.1713 8.1419 12.751 8.29479 12.3587C8.44768 11.9664 8.6824 11.6112 8.98333 11.3167C8.69836 10.4629 8.7315 9.53479 9.07666 8.70342C9.86999 8.44675 11.6783 9.74175 11.6783 9.74175C13.2232 9.30604 14.8585 9.30604 16.4033 9.74175C16.4033 9.74175 18.2117 8.44675 19.005 8.70342C19.3565 9.53338 19.3898 10.4638 19.0983 11.3167C19.4104 11.6067 19.658 11.9591 19.8248 12.3511C19.9916 12.7431 20.0741 13.1658 20.0667 13.5917C20.0667 17.3251 17.85 17.6167 15.75 17.8617C15.9611 18.0985 16.1216 18.3758 16.2219 18.6767C16.3222 18.9775 16.3601 19.2957 16.3333 19.6117V22.8434C16.3326 22.9222 16.3508 23 16.3865 23.0702C16.4223 23.1405 16.4744 23.201 16.5385 23.2468C16.6026 23.2926 16.6768 23.3223 16.7548 23.3333C16.8329 23.3443 16.9124 23.3363 16.9867 23.3101C18.8781 22.6309 20.5083 21.3746 21.6472 19.7187C22.786 18.0628 23.3758 16.091 23.3333 14.0817C23.3443 12.8393 23.1071 11.6073 22.6356 10.4577C22.1642 9.3082 21.4679 8.26437 20.5878 7.38745C19.7076 6.51054 18.6612 5.81818 17.5099 5.35099C16.3586 4.8838 15.1257 4.65117 13.8833 4.66675ZM8.32999 17.9784V18.1767C8.343 18.1898 8.35845 18.2002 8.37547 18.2072C8.39249 18.2143 8.41073 18.2179 8.42916 18.2179C8.44758 18.2179 8.46583 18.2143 8.48285 18.2072C8.49986 18.2002 8.51532 18.1898 8.52833 18.1767C8.52833 18.1767 8.52833 18.0484 8.52833 17.9667C8.52833 17.8851 8.37666 17.9317 8.32999 17.9784ZM7.92166 17.6634C7.92166 17.6634 7.92166 17.7801 8.00333 17.8151C8.01317 17.8273 8.02561 17.8371 8.03974 17.8438C8.05387 17.8506 8.06933 17.8541 8.08499 17.8541C8.10065 17.8541 8.11611 17.8506 8.13024 17.8438C8.14437 17.8371 8.15682 17.8273 8.16666 17.8151C8.16666 17.8151 8.16666 17.6984 8.08499 17.6634C8.00332 17.6284 7.94499 17.6284 7.92166 17.6634ZM9.08833 19.0401V19.2851C9.08833 19.3668 9.28666 19.3784 9.33332 19.2851C9.37999 19.1918 9.33332 19.1217 9.33332 19.0401C9.33332 18.9584 9.18166 18.9817 9.13499 19.0401H9.08833ZM8.65666 18.4684V18.7017C8.65666 18.7951 8.81999 18.8301 8.87832 18.7951C8.90787 18.7611 8.92414 18.7176 8.92414 18.6726C8.92414 18.6276 8.90787 18.5841 8.87832 18.5501C8.81999 18.4567 8.72666 18.4217 8.65666 18.4684Z" fill="white"/>
</svg>
