<?xml version="1.0" encoding="UTF-8"?>
<svg id="Livello_1" xmlns="http://www.w3.org/2000/svg" version="1.1" viewBox="0 0 250 250">
  <!-- Generator: Adobe Illustrator 29.2.1, SVG Export Plug-In . SVG Version: 2.1.0 Build 116)  -->
  <defs>
    <style>
      .st0, .st1 {
        fill: #fff;
      }

      .st1 {
        opacity: .6;
      }
    </style>
  </defs>
  <g id="g19">
    <g id="g842">
      <path id="path835" class="st0" d="M86.2,184.4c7.2,9,14.5,20.2,18.3,27,4.7,8.8,6.6,14.8,10,25.5,2,5.9,4,7.7,8,7.7s6.4-3,8-7.7c3.2-10,5.7-17.7,9.7-25,7.8-14,17.6-26.4,27.1-38.3,2.6-3.3,19.4-23.1,26.9-38.7,0,0,9.2-17.1,9.2-41s-9.1-37.9-9.1-37.9l-26.3,7-16,42-4,5.7-.8,1.1-1.1,1.3-1.8,2.1-2.6,2.6-14.2,11.6-35.5,20.5-5.8,34.3Z"/>
      <path id="path833" class="st1" d="M49.5,131.9c8.7,19.8,25.3,37.2,36.7,52.4l60.1-71.2s-8.5,11.1-23.8,11.1-30.9-13.6-30.9-30.8,7-19.9,7-19.9l-40.8,10.9-8.4,47.5Z"/>
      <path id="path831" class="st1" d="M147,16.2c19.9,6.4,37,19.9,47.3,39.9l-48,57.2s7-8.2,7-19.9c0-17.6-14.8-30.8-30.8-30.8s-23.9,11-23.9,11v-36.1l48.4-21.3Z"/>
      <path id="path829" class="st0" d="M60.5,41.4c11.9-14.2,32.9-28.9,61.8-28.9s24.6,3.7,24.6,3.7l-48.2,57.4h-34.2l-4-32.1Z"/>
      <path id="path827" class="st0" d="M49.5,131.9s-7.9-15.7-7.9-38.2,8.4-40,19-52.2l38.1,32.1-49.2,58.3Z"/>
    </g>
  </g>
</svg>