<?xml version="1.0" encoding="UTF-8"?>
<svg id="Camada_1" xmlns="http://www.w3.org/2000/svg" version="1.1" xmlns:xlink="http://www.w3.org/1999/xlink" viewBox="0 0 800 800">
  <!-- Generator: Adobe Illustrator 29.2.1, SVG Export Plug-In . SVG Version: 2.1.0 Build 116)  -->
  <defs>
    <style>
      .st0 {
        fill: #fff;
      }
    </style>
  </defs>
  <path class="st0" d="M125,487.5c0-115,57.5-235,125-235s67.5,22.5,115,90c-45,70-72.5,112.5-72.5,112.5-60,95-80,115-112.5,115-32.5,2.5-55-27.5-55-82.5M517.5,445l-42.5-70c-10-17.5-22.5-35-32.5-50,37.5-57.5,67.5-87.5,105-87.5,75,0,135,112.5,135,252.5s-17.5,82.5-52.5,82.5-47.5-22.5-112.5-127.5M410,275c-55-72.5-102.5-100-157.5-100-115,0-202.5,152.5-202.5,312.5s47.5,162.5,127.5,162.5,97.5-27.5,172.5-157.5c0,0,30-55,52.5-92.5,7.5,12.5,15,25,22.5,40l35,60c67.5,115,105,152.5,172.5,152.5s120-65,120-167.5c-2.5-170-92.5-310-200-310s-102.5,45-142.5,100"/>
</svg>