<?xml version="1.0" encoding="UTF-8"?>
<svg id="Camada_1" xmlns="http://www.w3.org/2000/svg" version="1.1" xmlns:xlink="http://www.w3.org/1999/xlink" viewBox="0 0 800 800">
  <!-- Generator: Adobe Illustrator 29.2.1, SVG Export Plug-In . SVG Version: 2.1.0 Build 116)  -->
  <defs>
    <style>
      .st0 {
        fill: #fff;
      }
    </style>
  </defs>
  <path class="st0" d="M400.5,0C465.4,0,526.5,15.2,583.9,44.6h0l7.6,3.8-6.6,5.2c-16.1,12.8-28.9,29.4-37,48.3h0l-2.4,5.2-4.7-2.4c-44.1-20.9-91-31.8-139.8-31.8-180.6,0-327,146.9-327,327s146,327,326.5,327,327-146.9,327-327-8.1-85.3-25.1-125.1h0l-2.4-5.2,5.2-2.4c19.4-7.1,36.5-19,50.2-34.1h0l5.2-6.6,3.3,7.6c24.2,52.6,36,108.5,36,164.9,0,220.4-179.6,400-400,400S0,619.4,0,399.1,179.6-.9,400.5,0ZM400.5,218c100,0,182,81.5,182.5,182.5,0,100.9-81.5,182.5-182.5,182.5s-182.5-81.5-182.5-182.5,82-182.5,182.5-182.5ZM661.6,67.3c46.1,0,83.4,37.3,83.4,83.4s-37.3,83.4-83.4,83.4-83.4-37.3-83.4-83.4,37.3-83.4,83.4-83.4Z"/>
</svg>