<?xml version="1.0" encoding="UTF-8"?>
<svg id="Camada_1" xmlns="http://www.w3.org/2000/svg" version="1.1" viewBox="0 0 800 800">
  <!-- Generator: Adobe Illustrator 29.2.1, SVG Export Plug-In . SVG Version: 2.1.0 Build 116)  -->
  <defs>
    <style>
      .st0 {
        fill: #fff;
      }
    </style>
  </defs>
  <path class="st0" d="M50,50v700h700V50H50ZM425,593.8c0,68.1-40.2,101.4-98.5,101.4s-83.2-27.3-98.7-60.1h0l53.6-32.4c10.3,18.3,18.2,33.8,40.7,33.8s34.2-8.5,34.2-41.3v-220h68.8v218.8ZM580.2,693.5c-61.1,0-100.5-27.6-119.8-65.6h0l53.6-31c14.1,23,32.4,38.4,64.8,38.4s43.1-12.1,43.1-30.9-16.3-30.5-46.4-43.8l-16.4-7.1c-47.5-20.2-78.9-45.6-78.9-99.1s37.6-85.4,96.3-85.4,71.9,13,93.5,51.1l-51.3,33c-11.3-20.2-23.4-28.1-42.3-28.1s-31.5,12.2-31.5,28.1,12.2,27.7,40.4,39.9l16.4,7c55.9,24,87.4,48.4,87.4,103.4,0,59.2-46.5,90.1-109,90.1Z"/>
</svg>