<svg width="28" height="28" viewBox="0 0 28 28" fill="none" xmlns="http://www.w3.org/2000/svg">
<path d="M21.8401 4.66671H6.26508C6.06433 4.65731 5.86369 4.68759 5.67466 4.75582C5.48562 4.82406 5.3119 4.9289 5.16344 5.06436C5.01497 5.19982 4.89468 5.36323 4.80946 5.54524C4.72423 5.72725 4.67573 5.92427 4.66675 6.12505V21.735C4.67851 22.1552 4.85068 22.555 5.14791 22.8522C5.44515 23.1494 5.84489 23.3216 6.26508 23.3334H21.8401C22.2486 23.3152 22.6337 23.1377 22.9128 22.8389C23.192 22.5401 23.343 22.1438 23.3334 21.735V6.12505C23.3368 5.92964 23.3001 5.7356 23.2258 5.55484C23.1515 5.37408 23.041 5.21041 22.9012 5.07386C22.7614 4.93731 22.5951 4.83076 22.4127 4.76075C22.2302 4.69074 22.0354 4.65874 21.8401 4.66671ZM10.5001 20.23H7.78175V11.9117H10.5001V20.23ZM9.20508 10.6517C9.01539 10.6583 8.82638 10.6256 8.64993 10.5557C8.47348 10.4858 8.31339 10.3801 8.17973 10.2454C8.04606 10.1106 7.94171 9.94965 7.87322 9.77263C7.80473 9.59561 7.77359 9.40634 7.78175 9.21671C7.77336 9.02504 7.80513 8.83372 7.87502 8.65504C7.94491 8.47636 8.05138 8.31426 8.1876 8.17915C8.32381 8.04403 8.48677 7.93888 8.666 7.87044C8.84524 7.802 9.03681 7.77177 9.22841 7.78171C9.4181 7.7751 9.60711 7.80779 9.78357 7.87772C9.96002 7.94765 10.1201 8.05332 10.2538 8.18808C10.3874 8.32284 10.4918 8.48378 10.5603 8.6608C10.6288 8.83782 10.6599 9.02708 10.6517 9.21671C10.6601 9.40839 10.6284 9.59971 10.5585 9.77839C10.4886 9.95707 10.3821 10.1192 10.2459 10.2543C10.1097 10.3894 9.94673 10.4945 9.76749 10.563C9.58825 10.6314 9.39669 10.6617 9.20508 10.6517ZM20.2301 20.23H17.5001V15.68C17.5001 14.595 17.1151 13.8484 16.1467 13.8484C15.8459 13.851 15.5533 13.9466 15.3089 14.122C15.0645 14.2975 14.8804 14.5442 14.7817 14.8284C14.7049 15.0412 14.6731 15.2676 14.6884 15.4934V20.23H12.0051V11.9117H14.6884V13.0784C14.927 12.6401 15.2821 12.2763 15.7144 12.0272C16.1468 11.7781 16.6396 11.6533 17.1384 11.6667C18.9001 11.6667 20.2301 12.8334 20.2301 15.3184V20.23Z" fill="white"/>
</svg>
