<svg width="28" height="28" viewBox="0 0 28 28" fill="none" xmlns="http://www.w3.org/2000/svg">
<path d="M22.1667 4.9585H5.83341C5.29288 4.96156 4.77535 5.17765 4.39312 5.55987C4.0109 5.9421 3.79481 6.45962 3.79175 7.00016V21.0002C3.79481 21.5407 4.0109 22.0582 4.39312 22.4405C4.77535 22.8227 5.29288 23.0388 5.83341 23.0418H22.1667C22.7073 23.0388 23.2248 22.8227 23.607 22.4405C23.9893 22.0582 24.2054 21.5407 24.2084 21.0002V7.00016C24.2054 6.45962 23.9893 5.9421 23.607 5.55987C23.2248 5.17765 22.7073 4.96156 22.1667 4.9585ZM5.83341 6.7085H22.1667C22.2441 6.7085 22.3183 6.73923 22.373 6.79392C22.4277 6.84862 22.4584 6.92281 22.4584 7.00016V8.79683L14.0001 13.0202L5.54175 8.79683V7.00016C5.54175 6.92281 5.57248 6.84862 5.62717 6.79392C5.68187 6.73923 5.75606 6.7085 5.83341 6.7085ZM22.1667 21.2918H5.83341C5.75606 21.2918 5.68187 21.2611 5.62717 21.2064C5.57248 21.1517 5.54175 21.0775 5.54175 21.0002V10.7452L13.6034 14.7818C13.7266 14.8434 13.8624 14.8755 14.0001 14.8755C14.1378 14.8755 14.2736 14.8434 14.3967 14.7818L22.4584 10.7452V21.0002C22.4584 21.0775 22.4277 21.1517 22.373 21.2064C22.3183 21.2611 22.2441 21.2918 22.1667 21.2918Z" fill="white"/>
</svg>
