<?xml version="1.0" encoding="UTF-8"?>
<svg id="Camada_1" xmlns="http://www.w3.org/2000/svg" version="1.1" viewBox="0 0 800 800">
  <!-- Generator: Adobe Illustrator 29.2.1, SVG Export Plug-In . SVG Version: 2.1.0 Build 116)  -->
  <defs>
    <style>
      .st0 {
        fill: #fff;
      }
    </style>
  </defs>
  <path class="st0" d="M471,1.6c-5.8,0-11.1,1.2-16.1,2.9,10.5,7,16.3,16.3,19.2,26.9.2,1.4.6,2.5.8,3.9.2,1.2.4,2.5.4,3.7.8,18.2-4.8,20.5-8.7,31.2-6,13.8-4.3,28.7,2.9,40.7.7,1.6,1.5,3.1,2.5,4.6-7.8-52.3,35.8-60.1,43.8-76.4.6-14.3-11.1-23.8-20.4-30.4-7.3-4.6-15.8-7-24.4-7h0ZM536.7,13.3c-.8,4.8-.2,3.5-.4,6-.2,1.7-.2,3.7-.4,5.4-.4,1.7-.8,3.3-1.5,5-.4,1.7-1,3.3-1.7,5l-2.2,4.7c-.7.8-1,1.7-1.7,2.5l-1.2,1.8c-1,1.4-2,2.8-3.1,4.1-1.2,1.3-2.3,2.7-3.7,3.7v.2c-1.2,1-2.5,2.3-3.9,3.3-4.3,3.3-9.3,5.8-13.8,8.9-1.4,1-2.9,1.9-4.1,3.1-1.4,1-2.7,2.1-3.9,3.3-1.4,1.2-2.5,2.5-3.7,3.9-1,1.2-2.3,2.7-3.1,4.1-1,1.4-2,2.8-2.9,4.3-.8,1.7-1.4,3.1-2.3,4.7-.6,1.7-1.2,3.1-1.7,4.8-.5,1.7-1,3.4-1.4,5.2-.2.8-.2,1.9-.4,2.7-.2.8-.2,1.7-.4,2.5,0,1.7-.2,3.5-.2,5.2s0,2.5.2,3.7c0,1.7.2,3.3.6,5.2.2,1.7.6,3.3,1,5,.7,1.6,1.1,3.3,1.7,4.9.4,1,1,2.1,1.5,2.9l-47.5-18.4c-8-2.3-15.9-4.3-24-6.2l-13-3.1c-12.4-2.5-25-4.3-37.6-5.6-.4,0-.6-.2-1-.2-21.3-2.1-42.7-2.4-64.1-.8-12.6.8-25.2,2.5-37.8,4.5-9.4,1.6-18.7,3.5-27.9,5.8l-9.3,2.5c-3.1,1.2-6,2.7-8.9,3.9l-6.8,3.1c-.4.2-.8.2-1,.4-2.1,1-3.9,1.9-5.8,2.9-2.7,1.2-5.3,2.5-7.9,3.9-1.4.6-2.9,1.4-4.1,2.1-.6.4-1.2.7-1.8,1-1.9,1.1-3.7,2.1-5.4,3.1-1.7.9-3.3,2-4.9,3.1-1.5,1-2.9,1.8-4.1,2.9-.2.2-.4.2-.6.4-1.2.8-2.7,1.9-3.9,2.9l-.4.4-3.1,2.5c-.4.2-.8.6-1.2.8-1,.8-2.1,1.9-3.1,2.7-.2.4-.6.7-.8.8-1.2,1.3-2.5,2.3-3.7,3.5-.2,0-.2.2-.4.4-1.3,1.1-2.5,2.3-3.7,3.5-.2.2-.2.4-.4.4-1.1,1.1-2.1,2.2-3.1,3.3-.4.4-1,.8-1.4,1.2-1.1,1.3-2.3,2.6-3.5,3.7-.2.4-.6.6-.8,1-1.7,1.7-3.1,3.3-4.8,5l-.6.6c-3.3,3.5-6.8,7-10.6,10.1-3.7,3.3-7.6,6.4-11.6,9.1-7.9,5.6-16.4,10.4-25.4,14-4.3,1.9-8.9,3.5-13.4,5-8.7,1.9-17.6,5.4-25.2,6-1.7,0-3.5.4-5.2.6l-5.2,1.2-5,1.9c-1.7.6-3.3,1.5-4.9,2.3-1.5,1-3.1,1.9-4.6,2.9-1.5,1.1-2.9,2.2-4.1,3.5-1.4,1-2.9,2.5-4.1,3.7-1.2,1.4-2.5,2.7-3.5,4.1-1,1.7-2.3,3.1-3.1,4.8-1.1,1.5-2.1,3.1-2.9,4.7-.8,1.9-1.7,3.5-2.3,5.4-.6,1.7-1.2,3.5-1.9,5.4-.4,1.7-.8,3.3-1,5,0,.2-.2.4-.2.6-.4,1.9-.4,4.3-.6,5.6-.2,1.5-.4,2.7-.4,4.1,0,3.6.8,7.1,2.5,10.3v.2c.6,1.2,1.5,2.5,2.3,3.7.8,1.2,1.7,2.5,2.7,3.7,1,1,2.3,2.3,3.5,3.3,1.2,1.2,2.5,2.3,3.9,3.3,5,4.3,6.2,5.8,12.6,9.1,1,.6,2.1,1,3.3,1.7.2,0,.4.2.6.2,0,.4,0,.6.2,1,.5,3.4,1.4,6.7,2.7,9.9.7,1.2,1.1,2.5,1.7,3.7.2.4.4.8.7,1,.8,1.7,1.6,3.1,2.4,4.6l3.1,4.3c1,1.2,2.3,2.7,3.5,3.9,1.2,1.2,2.5,2.3,3.9,3.5,0,0,.2.2.4.2,1.2,1,2.5,2.1,3.7,2.9,1.4,1,3,1.9,4.5,2.7,1.4.8,3.1,1.7,4.7,2.3,1.3.6,2.7,1.1,4.1,1.4.2.2.4.2.8.4.8.2,1.9.4,2.7.6-.6,11.2-.8,21.7.9,25.4,1.8,4.1,10.9-8.5,20-22.9-1.2,14.3-2,31,0,36,2.3,5.2,14.7-11,25.4-28.7,146.5-33.9,280.2,67.3,294.2,210.3-2.7-22.3-30.2-34.7-42.8-31.6-6.2,15.3-16.7,34.9-33.7,47.1,1.4-13.7.8-27.7-2.1-41.3-4.6,19-13.4,36.8-25.6,52.1-19.6,1.4-39.2-8.1-49.6-22.3-.8-.6-1-1.8-1.7-2.7-.6-1.4-1.2-2.9-1.7-4.3-.6-1.4-1-2.8-1.2-4.3-.2-1.5-.2-2.9-.2-4.6v-3.1c.2-1.5.6-2.9,1-4.3.4-1.4.8-2.9,1.5-4.3.8-1.4,1.4-2.9,2.5-4.3,3.5-9.9,3.5-18-2.9-22.7-1.2-.8-2.6-1.5-3.9-2.1-.8-.2-1.8-.6-2.7-.8l-1.7-.6c-1.4-.5-2.9-.8-4.3-1-1.4-.4-2.9-.6-4.3-.6-1.5-.2-3-.4-4.5-.4-1,0-2.1.2-3.1.2-1.5,0-3.1.2-4.6.6-1.4.2-2.9.4-4.3.8-1.5.4-2.9.9-4.3,1.5-1.4.6-2.7,1.2-4.1,1.9-1.2.6-2.5,1.4-3.9,2.1-48.1,31.4-19.4,104.9,13.4,126.2-12.4,2.3-25,4.9-28.5,7.6l-.4.4c8.9,5.4,18.2,9.9,27.9,13.9,13.2,4.3,27.3,8.2,33.5,9.9v.2c17.1,3.5,34.6,4.8,52.1,3.7,91.5-6.4,166.5-76,180.2-167.8l1.2,5.4c.6,3.7,1.4,7.7,1.9,11.6v.2c.4,1.9.6,3.7.8,5.4v.8c.2,1.9.4,3.7.4,5.4.2,2.3.4,4.5.4,6.8v3.3c0,1,.2,2.2.2,3.3s-.2,2.5-.2,3.7v2.9c0,1.4-.2,2.7-.2,4.1s0,1.7-.2,2.7c0,1.5-.2,2.9-.2,4.6-.2.6-.2,1.2-.2,1.8l-.7,4.8c0,.6,0,1.2-.2,1.9-.2,2.1-.6,3.9-.8,6v.4l-1.2,5.8v.6l-1.2,5.6c0,.2-.2.7-.2.8-.4,1.9-.9,3.8-1.4,5.6v.6c-.6,2.1-1.2,3.9-1.7,5.8-.2.2-.2.4-.2.4l-1.9,6.2c-.8,2.1-1.4,3.9-2.3,6s-1.4,4.1-2.3,6c-.8,2.1-1.7,3.9-2.5,6h-.2c-.8,1.8-1.7,3.9-2.7,5.8-.2.5-.4,1-.6,1.4-.2.2-.2.4-.4.6-13.7,27.4-33.6,51.1-58.1,69.4-1.7,1-3.3,2.3-5,3.5-.4.4-1,.6-1.4,1-1.5,1.1-3,2.1-4.5,3.1l.6,1.2h.2l8.7-1.2h.2c5.4-.8,10.7-1.9,16.1-2.9,1.5-.2,3.1-.6,4.6-1l2.9-.6c1.4-.2,2.9-.6,4.3-.8,1.2-.4,2.5-.7,3.7-1,20.7-5,40.7-11.8,59.9-19.8-33.2,45.2-77.4,81.3-128.3,104.7,23.8-1.7,47.5-5.6,70.5-12.2,83-24.4,153.1-80.4,195.2-156-8.5,47.8-27.5,93.2-55.6,132.9,20-13.2,38.5-28.6,55.2-45.9,46.2-48.3,76.6-109.6,87-175.6,7,32.7,9.1,66.3,6,99.6,149.1-208,12.4-423.7-44.9-480.5-.2-.4-.4-.6-.4-1q-.2.2-.2.4t-.2-.4c0,2.5-.2,4.9-.4,7.4-.6,4.6-1.3,9.2-2.1,13.8-1,4.5-2.3,9.1-3.5,13.7-1.5,4.3-3.1,8.9-5,13.2-1.9,4.3-3.9,8.5-6.2,12.6-4.6,8.1-9.9,15.8-15.9,22.9-3.1,3.7-6.4,7-9.7,10.3-1.9,1.8-3.9,3.5-6,5.2l-4.7,4.1c-3.7,2.9-7.6,5.6-11.6,8-3.9,2.5-8,4.9-12.2,7-4.3,2.1-8.7,3.9-13,5.8-8.8,3.4-18,5.8-27.3,7.4-4.8.8-9.5,1.2-14.1,1.7-3.3.2-6.6.4-9.9.4-4.7,0-9.4-.3-14.1-.8-4.7-.4-9.4-1.1-14-2.1-4.7-.9-9.3-2-13.8-3.5h-.2c4.6-.4,9.1-.8,13.7-1.7,9.3-1.6,18.4-4.1,27.3-7.4,4.5-1.7,8.9-3.7,13-5.8,4.3-2.1,8.3-4.3,12.4-6.8,3.9-2.7,7.8-5.4,11.6-8.3,3.7-2.9,7.2-6,10.5-9.3,3.5-3.1,6.6-6.6,9.7-10.1,3.1-3.7,6-7.4,8.7-11.1.4-.6.9-1.5,1.3-2.1,2.1-3.3,4.1-6.6,6-9.9,4.6-8.2,8.3-16.9,11.1-25.8,1.5-4.3,2.5-8.9,3.5-13.4.8-4.7,1.7-9.3,2.1-13.8.4-4.7.8-9.5.8-14s-.2-6.6-.4-9.9c-.4-4.6-1-9.2-1.7-13.8-.8-4.7-1.8-9.3-3.1-13.8-1.5-4.3-2.9-8.9-4.6-13.2-1.7-4.3-3.7-8.7-5.8-12.8-2.3-4.1-4.6-8.3-7-12.2-2.6-3.9-5.4-7.6-8.3-11.3-3.1-3.5-6.2-7.1-9.5-10.6-1.7-1.8-3.5-3.5-5.4-5.2-9.3-7.2-19-14-28.7-20.2-1.3-.8-2.7-1.5-4.1-2.1-6.1-3.8-12.7-6.7-19.6-8.7h0Z"/>
</svg>