<?xml version="1.0" encoding="UTF-8"?>
<svg id="Camada_1" xmlns="http://www.w3.org/2000/svg" version="1.1" viewBox="0 0 28 29">
  <!-- Generator: Adobe Illustrator 29.2.1, SVG Export Plug-In . SVG Version: 2.1.0 Build 116)  -->
  <defs>
    <style>
      .st0 {
        fill: #fff;
      }
    </style>
  </defs>
  <path class="st0" d="M12.9,28.7c.3.2.7.3,1.1.3s.8-.1,1.1-.2l10.6-6.2c.7-.4,1.1-1.1,1.1-1.9v-12.3c0-.8-.4-1.5-1.1-1.9L15.1.3c-.3-.2-.7-.3-1.1-.3s-.8,0-1.1.3L2.3,6.4c-.3.2-.6.5-.8.8-.2.3-.3.7-.3,1.1v12.3c0,.8.4,1.5,1.1,1.9l2.8,1.6c1.4.7,1.8.7,2.4.7,2,0,3.1-1.2,3.1-3.3v-12.1c0,0,0-.2,0-.2,0,0-.1,0-.2,0h-1.4c0,0-.2,0-.2,0,0,0,0,.1,0,.2v12.1c0,.9-1,1.9-2.5,1.1l-2.9-1.7c-.1,0-.2-.2-.2-.3v-12.3c0-.1,0-.2.2-.3L13.8,1.9c0,0,.2,0,.3,0l10.6,6.1c.1,0,.2.2.2.3v12.3c0,.1,0,.2-.2.3l-10.6,6.2c0,0-.2,0-.3,0l-2.7-1.6c0,0-.2,0-.3,0-.7.4-.9.5-1.6.7-.2,0-.4.2.1.5l3.5,2.1ZM11.7,16.6c0,1.8,1,3.9,5.6,3.9s5.3-1.3,5.3-3.7-1.5-2.9-4.8-3.3c-3.3-.4-3.6-.7-3.6-1.4s.3-1.5,2.7-1.5,3,.5,3.3,1.9c0,0,0,.1.1.2,0,0,.1,0,.2,0h1.4c0,0,.2,0,.2-.1,0,0,0-.2,0-.2-.2-2.6-1.9-3.7-5.3-3.7s-4.8,1.3-4.8,3.4,1.8,3,4.7,3.2c3.5.3,3.7.9,3.7,1.5,0,1.2-1,1.7-3.2,1.7s-3.4-.7-3.6-2.1c0-.2-.1-.3-.3-.3h-1.4c0,0-.2,0-.2,0,0,0,0,.1,0,.2Z"/>
</svg>