<svg width="28" height="28" viewBox="0 0 28 28" fill="none" xmlns="http://www.w3.org/2000/svg">
<path d="M21.4667 24.2082H21.1984C18.175 23.8806 15.2703 22.8497 12.7167 21.1982C10.3444 19.6864 8.32989 17.6759 6.81336 15.3066C5.15842 12.7461 4.12745 9.83301 3.80336 6.80156C3.76621 6.44 3.80289 6.07467 3.91119 5.72772C4.01948 5.38077 4.19714 5.05944 4.43336 4.78322C4.66312 4.5033 4.94672 4.27234 5.26736 4.104C5.58799 3.93567 5.93915 3.83339 6.30003 3.80322H9.33336C9.99033 3.80389 10.6254 4.03943 11.1239 4.46733C11.6224 4.89523 11.9515 5.48728 12.0517 6.13656C12.1626 6.97056 12.3701 7.78883 12.67 8.57489C12.8525 9.06883 12.8902 9.60463 12.7786 10.1192C12.667 10.6339 12.4108 11.1059 12.04 11.4799L11.3284 12.1916C12.4489 13.9605 13.9519 15.4555 15.7267 16.5666L16.4384 15.8666C16.8123 15.4958 17.2844 15.2396 17.799 15.128C18.3136 15.0164 18.8494 15.054 19.3434 15.2366C20.1303 15.5336 20.9483 15.741 21.7817 15.8549C22.4421 15.9542 23.0435 16.291 23.4731 16.8023C23.9027 17.3135 24.131 17.964 24.115 18.6316V21.4316C24.115 22.1598 23.8266 22.8583 23.3127 23.3743C22.7989 23.8904 22.1016 24.1818 21.3734 24.1849L21.4667 24.2082ZM9.33336 5.54156H6.54503C6.40812 5.55061 6.27447 5.58732 6.15215 5.64949C6.02983 5.71165 5.92138 5.79797 5.83336 5.90322C5.7477 6.00182 5.68286 6.11673 5.64276 6.24104C5.60267 6.36535 5.58813 6.49648 5.60003 6.62656C5.88421 9.37584 6.80709 12.0206 8.29503 14.3499C9.66778 16.5044 11.4956 18.3321 13.65 19.7049C15.9802 21.2097 18.6282 22.1523 21.385 22.4582C21.5283 22.4656 21.6716 22.4435 21.8061 22.3934C21.9405 22.3432 22.0633 22.266 22.1667 22.1666C22.3525 21.9761 22.457 21.7209 22.4584 21.4549V18.6666C22.4636 18.421 22.3786 18.1821 22.2195 17.995C22.0604 17.808 21.8382 17.6858 21.595 17.6516C20.6312 17.5221 19.6844 17.2874 18.7717 16.9516C18.5919 16.8843 18.3967 16.8695 18.2088 16.9087C18.0209 16.9479 17.8479 17.0397 17.71 17.1732L16.5434 18.3399C16.4067 18.4731 16.2307 18.5587 16.0416 18.5839C15.8524 18.6091 15.6601 18.5727 15.4934 18.4799C13.0039 17.0731 10.9433 15.0166 9.5317 12.5299C9.43507 12.3642 9.39638 12.171 9.42173 11.9809C9.44709 11.7908 9.53503 11.6145 9.6717 11.4799L10.8384 10.3132C10.9722 10.1779 11.0642 10.007 11.1035 9.8208C11.1428 9.63462 11.1277 9.44106 11.06 9.26322C10.7233 8.35081 10.4885 7.40394 10.36 6.43989C10.3311 6.18937 10.2099 5.95859 10.0201 5.79252C9.83033 5.62646 9.58551 5.53699 9.33336 5.54156Z" fill="white"/>
</svg>
