<svg width="32" height="32" viewBox="0 0 32 32" fill="none" xmlns="http://www.w3.org/2000/svg">
<path d="M16.0001 16.3333C15.0112 16.3333 14.0445 16.04 13.2222 15.4906C12.4 14.9412 11.7591 14.1603 11.3807 13.2467C11.0022 12.333 10.9032 11.3277 11.0962 10.3578C11.2891 9.3879 11.7653 8.49698 12.4645 7.79772C13.1638 7.09846 14.0547 6.62225 15.0246 6.42933C15.9945 6.2364 16.9999 6.33542 17.9135 6.71386C18.8271 7.09229 19.608 7.73316 20.1574 8.5554C20.7068 9.37765 21.0001 10.3443 21.0001 11.3333C21.0001 12.6593 20.4733 13.9311 19.5356 14.8688C18.5979 15.8065 17.3262 16.3333 16.0001 16.3333ZM16.0001 8.33325C15.4067 8.33325 14.8267 8.5092 14.3334 8.83885C13.84 9.16849 13.4555 9.63703 13.2284 10.1852C13.0014 10.7334 12.942 11.3366 13.0577 11.9185C13.1735 12.5005 13.4592 13.035 13.8788 13.4546C14.2983 13.8741 14.8329 14.1599 15.4148 14.2756C15.9968 14.3914 16.6 14.332 17.1481 14.1049C17.6963 13.8778 18.1648 13.4933 18.4945 13C18.8241 12.5066 19.0001 11.9266 19.0001 11.3333C19.0001 10.5376 18.684 9.77454 18.1214 9.21193C17.5588 8.64932 16.7957 8.33325 16.0001 8.33325ZM25.3334 25.6666C25.0693 25.6631 24.8169 25.5567 24.6301 25.3699C24.4433 25.1831 24.3369 24.9307 24.3334 24.6666C24.3334 22.0666 22.9201 20.3333 16.0001 20.3333C9.08008 20.3333 7.66675 22.0666 7.66675 24.6666C7.66675 24.9318 7.56139 25.1862 7.37385 25.3737C7.18632 25.5612 6.93196 25.6666 6.66675 25.6666C6.40153 25.6666 6.14718 25.5612 5.95964 25.3737C5.7721 25.1862 5.66675 24.9318 5.66675 24.6666C5.66675 18.3333 12.9067 18.3333 16.0001 18.3333C19.0934 18.3333 26.3334 18.3333 26.3334 24.6666C26.33 24.9307 26.2235 25.1831 26.0367 25.3699C25.8499 25.5567 25.5976 25.6631 25.3334 25.6666Z" fill="white"/>
</svg>
