<svg width="32" height="32" viewBox="0 0 32 32" fill="none" xmlns="http://www.w3.org/2000/svg">
<path d="M25.3333 8.33328H20.3333V6.66661C20.2853 6.00499 19.9785 5.38895 19.4793 4.95212C18.98 4.5153 18.3287 4.29294 17.6666 4.33328H14.3333C13.6711 4.29294 13.0198 4.5153 12.5206 4.95212C12.0213 5.38895 11.7145 6.00499 11.6666 6.66661V8.33328H6.66659C6.04883 8.33678 5.45737 8.58374 5.02054 9.02057C4.58371 9.4574 4.33675 10.0489 4.33325 10.6666V23.9999C4.33675 24.6177 4.58371 25.2092 5.02054 25.646C5.45737 26.0828 6.04883 26.3298 6.66659 26.3333H25.3333C25.951 26.3298 26.5425 26.0828 26.9793 25.646C27.4161 25.2092 27.6631 24.6177 27.6666 23.9999V10.6666C27.6631 10.0489 27.4161 9.4574 26.9793 9.02057C26.5425 8.58374 25.951 8.33678 25.3333 8.33328ZM13.6666 6.66661C13.6666 6.55995 13.9199 6.33328 14.3333 6.33328H17.6666C18.0799 6.33328 18.3333 6.55995 18.3333 6.66661V8.33328H13.6666V6.66661ZM6.66659 10.3333H25.3333C25.4217 10.3333 25.5064 10.3684 25.569 10.4309C25.6315 10.4934 25.6666 10.5782 25.6666 10.6666V14.9999H6.33325V10.6666C6.33325 10.5782 6.36837 10.4934 6.43088 10.4309C6.49339 10.3684 6.57818 10.3333 6.66659 10.3333ZM11.6666 16.9999H20.3333V18.9999H11.6666V16.9999ZM25.3333 24.3333H6.66659C6.57818 24.3333 6.49339 24.2982 6.43088 24.2357C6.36837 24.1731 6.33325 24.0884 6.33325 23.9999V16.9999H9.66659V19.9999C9.67004 20.2641 9.7765 20.5164 9.9633 20.7032C10.1501 20.89 10.4024 20.9965 10.6666 20.9999H21.3333C21.5974 20.9965 21.8497 20.89 22.0365 20.7032C22.2233 20.5164 22.3298 20.2641 22.3333 19.9999V16.9999H25.6666V23.9999C25.6666 24.0884 25.6315 24.1731 25.569 24.2357C25.5064 24.2982 25.4217 24.3333 25.3333 24.3333Z" fill="white"/>
</svg>
