<svg width="32" height="32" viewBox="0 0 32 32" fill="none" xmlns="http://www.w3.org/2000/svg">
<path fill-rule="evenodd" clip-rule="evenodd" d="M15.2973 4.55722C15.5174 4.45488 15.7572 4.40186 16 4.40186C16.2427 4.40186 16.4825 4.45488 16.7026 4.55722L27.036 9.36122C28.356 9.97455 28.3093 11.8666 26.9613 12.4159L26.3333 12.6719V17.7586C26.3333 18.3919 26.0746 19.0426 25.5213 19.4826C24.9853 19.9092 24 20.6186 22.6466 21.2746V26.6666C22.6466 26.9318 22.5413 27.1861 22.3537 27.3737C22.1662 27.5612 21.9119 27.6666 21.6466 27.6666C21.3814 27.6666 21.1271 27.5612 20.9395 27.3737C20.752 27.1861 20.6466 26.9318 20.6466 26.6666V22.0839C19.147 22.5773 17.5787 22.8297 16 22.8319C11.072 22.8319 7.55597 20.1359 6.3973 19.1159C6.16469 18.9083 5.97916 18.6534 5.85314 18.3683C5.72712 18.0831 5.66353 17.7743 5.66664 17.4626V12.6719L5.03864 12.4159C3.69064 11.8666 3.6453 9.97588 4.9653 9.36255L15.2973 4.55722ZM7.66664 13.5906L15.2826 17.2572C15.732 17.4732 16.256 17.4759 16.708 17.2666L20.6466 15.4346V19.9626C19.1635 20.5324 17.5888 20.827 16 20.8319C11.792 20.8319 8.7373 18.5119 7.71997 17.6159C7.69997 17.5986 7.66664 17.5546 7.66664 17.4626V13.5906ZM22.6466 19.0146C23.216 18.6893 23.7606 18.3226 24.276 17.9172C24.296 17.9026 24.3333 17.8572 24.3333 17.7586V13.6266L22.6466 14.4799V19.0146ZM21.6546 12.7412L24.9186 11.0892L25.4986 10.8519L16 6.43589L6.5013 10.8532L7.07197 11.0866L16.0066 15.3879L19.388 13.8146L15.536 11.8012C15.4195 11.7403 15.3162 11.657 15.232 11.5562C15.1477 11.4553 15.0842 11.3388 15.0449 11.2134C15.0057 11.088 14.9915 10.9561 15.0032 10.8252C15.015 10.6943 15.0524 10.567 15.1133 10.4506C15.1742 10.3341 15.2575 10.2308 15.3584 10.1466C15.4592 10.0623 15.5757 9.99873 15.7011 9.95949C15.8265 9.92024 15.9584 9.90608 16.0893 9.91781C16.2202 9.92955 16.3475 9.96695 16.464 10.0279L21.6546 12.7412Z" fill="white"/>
</svg>
