<svg width="32" height="32" viewBox="0 0 32 32" fill="none" xmlns="http://www.w3.org/2000/svg">
<path d="M24.0667 8.10675C21.9702 6.01913 19.1321 4.84705 16.1734 4.84705C13.2148 4.84705 10.3766 6.01913 8.28008 8.10675L6.66675 9.72009V5.84009C6.66675 5.57487 6.56139 5.32052 6.37385 5.13298C6.18632 4.94544 5.93196 4.84009 5.66675 4.84009C5.40153 4.84009 5.14718 4.94544 4.95964 5.13298C4.7721 5.32052 4.66675 5.57487 4.66675 5.84009V12.1601C4.66672 12.4265 4.77165 12.6823 4.95882 12.872C5.14598 13.0616 5.40031 13.1699 5.66675 13.1734H12.0001C12.2653 13.1734 12.5197 13.0681 12.7072 12.8805C12.8947 12.693 13.0001 12.4386 13.0001 12.1734C13.0001 11.9082 12.8947 11.6539 12.7072 11.4663C12.5197 11.2788 12.2653 11.1734 12.0001 11.1734H8.00008L9.69341 9.52009C11.4132 7.80374 13.7437 6.8398 16.1734 6.8398C18.6031 6.8398 20.9336 7.80374 22.6534 9.52009C30.9067 18.4401 18.6534 30.7334 9.69341 22.4801C9.50591 22.2928 9.25175 22.1876 8.98675 22.1876C8.72175 22.1876 8.46758 22.2928 8.28008 22.4801C8.18574 22.572 8.11076 22.6819 8.05956 22.8033C8.00836 22.9246 7.98199 23.055 7.98199 23.1868C7.98199 23.3185 8.00836 23.4489 8.05956 23.5702C8.11076 23.6916 8.18574 23.8015 8.28008 23.8934C10.3735 25.9869 13.2128 27.1629 16.1734 27.1629C19.134 27.1629 21.9733 25.9869 24.0667 23.8934C26.1602 21.8 27.3363 18.9607 27.3363 16.0001C27.3363 13.0395 26.1602 10.2002 24.0667 8.10675Z" fill="white"/>
<path d="M16 10.3333C15.7359 10.3367 15.4835 10.4432 15.2967 10.63C15.1099 10.8168 15.0035 11.0691 15 11.3333V15.9999C15.0002 16.265 15.1057 16.5192 15.2933 16.7066L18.6667 19.9999C18.759 20.0934 18.8691 20.1675 18.9904 20.2179C19.1118 20.2682 19.2419 20.2939 19.3733 20.2933C19.5489 20.2677 19.7146 20.1958 19.8532 20.0851C19.9919 19.9744 20.0986 19.8288 20.1624 19.6632C20.2262 19.4976 20.2447 19.318 20.2162 19.1429C20.1877 18.9677 20.1131 18.8034 20 18.6666L16.96 15.6266V11.3333C16.957 11.0758 16.856 10.8292 16.6777 10.6434C16.4994 10.4577 16.2571 10.3468 16 10.3333Z" fill="white"/>
</svg>
