<?xml version="1.0" encoding="UTF-8"?>
<svg id="Camada_1" xmlns="http://www.w3.org/2000/svg" version="1.1" viewBox="0 0 800 800">
  <!-- Generator: Adobe Illustrator 29.2.1, SVG Export Plug-In . SVG Version: 2.1.0 Build 116)  -->
  <defs>
    <style>
      .st0 {
        fill: #fff;
      }
    </style>
  </defs>
  <path class="st0" d="M798.6,400.1c0-52.8-66.1-102.9-167.5-133.9,23.4-103.4,13-185.6-32.8-211.9-10.6-6.2-22.9-9.1-36.4-9.1v36.2c7.5,0,13.5,1.5,18.5,4.2,22.1,12.7,31.7,60.9,24.2,123-1.8,15.3-4.7,31.4-8.3,47.8-31.9-7.8-66.6-13.8-103.2-17.7-21.9-30.1-44.7-57.4-67.6-81.3,53-49.2,102.7-76.2,136.5-76.2v-36.2c-44.7,0-103.2,31.9-162.3,87.1-59.2-54.9-117.7-86.5-162.3-86.5v36.2c33.6,0,83.5,26.8,136.5,75.7-22.8,23.9-45.5,51-67.1,81.1-36.7,3.9-71.5,9.9-103.4,17.9-3.7-16.3-6.5-32-8.5-47.1-7.6-62.1,1.8-110.3,23.7-123.2,4.9-2.9,11.2-4.2,18.7-4.2v-36.2c-13.7,0-26,2.9-36.7,9.1-45.7,26.3-55.9,108.4-32.3,211.4C67.2,297.5,1.4,347.4,1.4,400.1s66.1,102.9,167.5,133.9c-23.4,103.4-13,185.6,32.8,211.9,10.6,6.2,22.9,9.1,36.6,9.1,44.7,0,103.2-31.9,162.3-87.1,59.2,54.9,117.7,86.5,162.3,86.5s26-2.9,36.7-9.1c45.7-26.3,55.9-108.4,32.3-211.4,100.8-31,166.6-81.1,166.6-133.7h0ZM587,291.7c-6,21-13.5,42.6-21.9,64.2-6.7-13-13.7-26-21.3-39-7.5-13-15.4-25.7-23.4-38,23.1,3.4,45.3,7.6,66.6,12.8h0ZM512.6,464.8c-12.7,21.9-25.7,42.7-39.2,62.1-24.2,2.1-48.8,3.3-73.5,3.3s-49.1-1.1-73.1-3.1c-13.5-19.3-26.7-40-39.3-61.8-12.4-21.3-23.6-42.9-33.8-64.7,10.1-21.8,21.5-43.6,33.6-64.8,12.7-21.9,25.7-42.7,39.2-62.1,24.2-2.1,48.8-3.3,73.5-3.3s49.1,1.1,73.1,3.1c13.5,19.3,26.7,40,39.3,61.8,12.4,21.3,23.6,42.9,33.8,64.7-10.2,21.8-21.5,43.6-33.6,64.8h0ZM565.1,443.6c8.8,21.8,16.3,43.6,22.4,64.7-21.3,5.2-43.7,9.6-67,13,8-12.5,15.9-25.4,23.4-38.5,7.5-13,14.5-26.2,21.1-39.2h0ZM400.3,617c-15.1-15.6-30.2-33-45.2-52,14.6.7,29.6,1.1,44.7,1.1s30.4-.3,45.2-1.1c-14.6,19-29.7,36.4-44.7,52ZM279.4,521.3c-23.1-3.4-45.3-7.6-66.6-12.8,6-21,13.5-42.6,21.9-64.2,6.7,13,13.7,26,21.3,39,7.6,13,15.4,25.7,23.4,38ZM399.5,183.1c15.1,15.6,30.2,33,45.2,52-14.6-.7-29.6-1.1-44.7-1.1s-30.4.3-45.2,1.1c14.6-19,29.7-36.4,44.7-52ZM279.3,278.8c-8,12.5-15.9,25.4-23.4,38.5-7.5,13-14.5,26-21.1,39-8.8-21.8-16.3-43.6-22.4-64.7,21.3-5,43.7-9.4,67-12.8h0ZM132.2,482.3c-57.5-24.5-94.7-56.7-94.7-82.2s37.2-57.9,94.7-82.2c14-6,29.3-11.4,45-16.4,9.3,31.9,21.5,65,36.6,99-15,33.8-27,66.8-36.1,98.5-16.1-5-31.4-10.6-45.5-16.6h0ZM219.6,714.5c-22.1-12.7-31.7-60.9-24.2-123,1.8-15.3,4.7-31.4,8.3-47.8,31.9,7.8,66.6,13.8,103.2,17.7,21.9,30.1,44.7,57.4,67.6,81.3-53,49.2-102.7,76.2-136.5,76.2-7.3-.2-13.5-1.6-18.4-4.4h0ZM605.1,590.7c7.6,62.1-1.8,110.3-23.7,123.2-4.9,2.9-11.2,4.2-18.7,4.2-33.6,0-83.5-26.8-136.5-75.7,22.8-23.9,45.5-51,67.1-81.1,36.7-3.9,71.5-9.9,103.4-17.9,3.7,16.4,6.7,32.2,8.5,47.3ZM667.7,482.3c-14,6-29.3,11.4-45,16.4-9.3-31.9-21.5-65-36.6-99,15-33.8,27-66.8,36.1-98.5,16.1,5,31.4,10.6,45.7,16.6,57.5,24.5,94.7,56.7,94.7,82.2-.2,25.5-37.4,57.9-94.9,82.2h0Z"/>
  <circle class="st0" cx="399.8" cy="400.1" r="74.3"/>
</svg>