<?xml version="1.0" encoding="UTF-8"?>
<svg xmlns="http://www.w3.org/2000/svg" version="1.1" viewBox="0 0 800 800">
  <!-- Generator: Adobe Illustrator 29.2.1, SVG Export Plug-In . SVG Version: 2.1.0 Build 116)  -->
  <defs>
    <style>
      .st0 {
        fill: #fff;
      }
    </style>
  </defs>
  <g id="Camada_1" focusable="false">
    <path class="st0" d="M560.8,575.3c2.2.1,4.6.4,7,.4,33.8,0,67.7-.2,101.5.2,7.4,0,9.6-2.5,9.2-9.6-.5-9.2-.1-18.5-.1-29.9,38.4,28.2,75.5,55.5,113.6,83.5-37.8,27.8-74.9,55.1-113.6,83.6v-28.6c0-11.5,0-11.5-11.2-11.5H18.6q-10.5,0-10.5-10.5c0-22.8.3-45.6-.2-68.4-.2-7.4,2.2-9.1,9.3-9,116.3.2,232.5.4,348.8,0,59.6-.2,106.6-24.8,137.7-76.2,56.1-92.8-2.4-214.2-110-229.9-83.1-12.1-160.3,43.7-174.4,128.2-1.5,8.8-1.6,17.8-2.5,28.4,13.6-1.8,25.9-3.5,39.9-5.4-21.8,42.2-42.9,83-64.3,124.3-32.8-33.8-65.1-67-96.6-99.6,7.9-1.3,18.4-2.8,28.9-5,2-.4,4.9-3.6,4.8-5.4-.6-22.1.9-44,5.3-65.7.1-.7-.2-1.4-.4-2.7-21.1-3.6-40.7-11.2-58.5-23.5-43.4-30-66.1-85.9-55.4-136.9,11.6-55.5,53.5-97,107.6-107.3,35.1-6.6,67.6-.3,97.8,18.2,5.3,3.3,8.6,3.8,12.1-1.9,2-3.4,5.1-6.1,8.7-10.1,4.4,17.7,8.5,34.3,12.6,50.9,1.4,5.6,2.5,11.2,4.1,16.8,1.8,6,0,8.6-6.3,8.2-18.2-1.2-36.4-2.4-54.6-3.6-4.5-.3-9-.8-14.7-1.3,4.5-5.7,8.6-10.8,13-16.3-9.8-7.5-20.7-11.2-31.9-13-54.5-8.9-102.6,33-101.5,88.2.8,42.4,36.5,80.2,78.7,83.8,5.5.5,7.4-2.3,9.5-6.4,29.9-57.4,74.9-97.9,136.2-119.1,141.7-48.9,289.7,38.7,317,182,13.5,70.6-1.9,135-44.7,192.8-1.2,1.6-2.2,3.3-3.3,5-.2.3,0,.9.2,2.2h-.2Z"/>
  </g>
</svg>