<?xml version="1.0" encoding="UTF-8"?>
<svg id="Camada_1" xmlns="http://www.w3.org/2000/svg" version="1.1" xmlns:xlink="http://www.w3.org/1999/xlink" viewBox="0 0 800 800">
  <!-- Generator: Adobe Illustrator 29.2.1, SVG Export Plug-In . SVG Version: 2.1.0 Build 116)  -->
  <defs>
    <style>
      .st0, .st1 {
        fill: #fff;
      }

      .st1 {
        fill-opacity: .7;
        opacity: .9;
      }
    </style>
  </defs>
  <path class="st1" d="M400,296.8c193.8,0,350.8-41.6,351-92.8v495.4c0,51.3-157.1,92.9-351,92.9v-161.9h1.4s24,25.9,24,25.9c7.7,8,15.6,15,23.8,21,8.1,6,16.6,10.6,25.5,14.1,8.9,3.4,18.6,5.1,29.2,5.1l22.2-1.4,14.3-2.8v-42.7l-5.3,1.7-6,1.3-6.2.8-5.7.3-17.6-1.3-15.7-4.8-15.2-9.5-16-15.4c22.4-8,39.9-21.8,52.4-41.4,12.6-19.8,18.8-43.5,18.8-71s-10.3-63.6-30.8-85c-20.4-21.6-47.2-32.5-80.2-32.5l-12.9.5v-96.3ZM689.1,100.6h61.9v41.3c0,51.3-157.1,92.9-351,92.9v-103.2c159.6,0,289.1-13.9,289.1-31ZM411.1,438.8c17.8,0,31.6,6.6,41.7,19.8,10,13,15,31,15,54.1s-5.2,39.8-15.6,52.6c-10.3,12.6-24.4,18.8-42.3,18.8l-9.8-.7v-143.7l11.1-.9ZM699,627.1v-42.9h-85.9v-188.3h-52.9v231.2h138.7Z"/>
  <path class="st0" d="M400,792.3c-193.9,0-351-41.6-351-92.9V203.9c0,51.3,157.1,92.9,351,92.9v95.9c-29.7,2.4-53.9,13.5-72.7,33.3-21.2,22.4-31.8,51.9-31.8,88.4s2.5,30.9,7.5,44.9c5,13.9,12.1,26.1,21.3,36.4,9.2,10.3,20.3,18.6,33.3,24.7,12.7,6,26.8,9.2,42.3,9.8v162.3ZM751,100.6h-61.9c0-17.1-129.4-31-289.1-31s-289.1,13.9-289.1,31,129.4,31,289.1,31v103.2c-193.9,0-351-41.6-351-92.9v-41.3C49,49.3,206.1,7.7,400,7.7s350.8,41.6,351,92.9ZM113.8,617.5c8.4,4.2,18.4,7.3,29.9,9.4,11.5,2.1,23.6,3.1,36.4,3.1s24.2-1.2,35.4-3.5c11.2-2.4,21-6.2,29.4-11.6,8.4-5.4,15.1-12.5,20-21.2,4.9-8.7,7.4-19.5,7.4-32.3s-1.4-17.4-4.1-24.4c-2.8-7-6.7-13.2-11.9-18.7-5.2-5.5-11.4-10.4-18.7-14.7l-24.6-12.3-18-8.1-13.5-8-8.6-8.6c-2-3-3-6.5-3-10.4s.9-7,2.7-10l7.6-7.7,12.1-5,15.9-1.8,13.5,1,14.2,3,13.9,5.2,12.5,7.3v-47.4c-7.8-3-16.4-5.2-25.7-6.6l-32-2.1c-12.3,0-23.9,1.3-34.9,3.9-11,2.6-20.6,6.7-29,12.3s-14.9,12.7-19.8,21.3c-4.8,8.6-7.3,18.9-7.3,30.9s4.4,28.3,13.1,39.1c8.7,10.8,22,19.9,39.8,27.4l19.5,8.5,15.7,8.7,10.4,9.8c2.5,3.5,3.8,7.5,3.8,12l-2.4,9.7c-1.6,3-4,5.5-7.3,7.7l-12.2,5.1-17.1,1.9c-11.1,0-22.1-1.9-33-5.8-10.9-3.9-21-9.6-30.4-17.3v50.2ZM367.6,458.5c8.5-10.6,19.3-17,32.4-19.2v143.8c-13-2-23.9-8.2-32.5-18.8-10.5-13.1-15.8-30.7-15.8-52.9s5.3-39.6,15.9-52.9Z"/>
</svg>