<svg width="28" height="28" viewBox="0 0 28 28" fill="none" xmlns="http://www.w3.org/2000/svg">
<path d="M20.5334 7.37323C19.6782 6.51156 18.6601 5.82852 17.5385 5.36386C16.4169 4.89919 15.2141 4.66216 14.0001 4.66656C12.3771 4.66815 10.783 5.09613 9.37741 5.90764C7.97185 6.71915 6.80417 7.88571 5.99131 9.29049C5.17845 10.6953 4.74895 12.289 4.7458 13.912C4.74266 15.535 5.166 17.1303 5.97341 18.5382L4.66675 23.3332L9.56675 22.0499C10.9192 22.8041 12.4399 23.2053 13.9884 23.2166C16.4497 23.2167 18.8114 22.2445 20.5594 20.5118C22.3074 18.7791 23.3002 16.4261 23.3217 13.9649C23.3135 12.7368 23.063 11.5223 22.5845 10.3912C22.106 9.26004 21.409 8.23446 20.5334 7.37323ZM14.0001 21.6182C12.6209 21.618 11.267 21.2473 10.0801 20.5449L9.80008 20.3699L6.89508 21.1399L7.66508 18.3049L7.47841 18.0132C6.48587 16.411 6.11545 14.5004 6.43731 12.6433C6.75917 10.7863 7.75096 9.11175 9.2248 7.93699C10.6986 6.76224 12.5522 6.16883 14.4342 6.2692C16.3163 6.36956 18.0962 7.15672 19.4367 8.48156C20.9021 9.91446 21.7409 11.869 21.7701 13.9182C21.7516 15.9668 20.9249 17.9252 19.4697 19.3673C18.0145 20.8093 16.0487 21.6183 14.0001 21.6182ZM18.2117 15.8549C17.9784 15.7382 16.8467 15.1782 16.6367 15.1082C16.4267 15.0382 16.2634 14.9916 16.1117 15.2249C15.8835 15.5377 15.6381 15.8376 15.3767 16.1232C15.2484 16.2866 15.1084 16.2982 14.8751 16.1232C13.5448 15.5975 12.4364 14.6292 11.7367 13.3816C11.4917 12.9732 11.9701 12.9966 12.4134 12.1216C12.4461 12.0585 12.4632 11.9885 12.4632 11.9174C12.4632 11.8463 12.4461 11.7763 12.4134 11.7132C12.4134 11.5966 11.8884 10.4532 11.7017 9.99823C11.5151 9.54323 11.3284 9.61323 11.1767 9.60156H10.7217C10.6037 9.60261 10.4873 9.62923 10.3806 9.67958C10.2738 9.72993 10.1793 9.80282 10.1034 9.89323C9.84225 10.1482 9.63848 10.456 9.5057 10.796C9.37292 11.136 9.31419 11.5004 9.33341 11.8649C9.4052 12.738 9.73404 13.5702 10.2784 14.2566C11.2731 15.7446 12.6355 16.9503 14.2334 17.7566C15.0716 18.2459 16.0458 18.4506 17.0101 18.3399C17.3312 18.2762 17.6353 18.1456 17.9026 17.9567C18.1699 17.7677 18.3945 17.5246 18.5617 17.2432C18.7181 16.9002 18.7669 16.5179 18.7017 16.1466C18.5967 16.0299 18.4451 15.9716 18.2117 15.8549Z" fill="white"/>
</svg>
